<?xml version="1.0" encoding="UTF-8" standalone="no"?>
<!-- Created with Inkscape (http://www.inkscape.org/) -->

<svg
   xmlns:dc="http://purl.org/dc/elements/1.1/"
   xmlns:cc="http://creativecommons.org/ns#"
   xmlns:rdf="http://www.w3.org/1999/02/22-rdf-syntax-ns#"
   xmlns:svg="http://www.w3.org/2000/svg"
   xmlns="http://www.w3.org/2000/svg"
   xmlns:xlink="http://www.w3.org/1999/xlink"
   xmlns:sodipodi="http://sodipodi.sourceforge.net/DTD/sodipodi-0.dtd"
   xmlns:inkscape="http://www.inkscape.org/namespaces/inkscape"
   width="113.98302mm"
   height="133.79893mm"
   viewBox="0 0 403.87686 474.09071"
   id="svg2"
   version="1.1"
   inkscape:version="0.91 r"
   sodipodi:docname="face.svg">
  <defs
     id="defs4">
    <linearGradient
       inkscape:collect="always"
       id="linearGradient4296">
      <stop
         style="stop-color:#d6d6d6;stop-opacity:1"
         offset="0"
         id="stop4298" />
      <stop
         style="stop-color:#ffffff;stop-opacity:1"
         offset="1"
         id="stop4300" />
    </linearGradient>
    <linearGradient
       inkscape:collect="always"
       id="linearGradient4272">
      <stop
         style="stop-color:#e3b89b;stop-opacity:1;"
         offset="0"
         id="stop4274" />
      <stop
         style="stop-color:#f2d7c4;stop-opacity:1"
         offset="1"
         id="stop4276" />
    </linearGradient>
    <linearGradient
       inkscape:collect="always"
       id="linearGradient4248">
      <stop
         style="stop-color:#301b0d;stop-opacity:1;"
         offset="0"
         id="stop4250" />
      <stop
         style="stop-color:#7d563d;stop-opacity:1"
         offset="1"
         id="stop4252" />
    </linearGradient>
    <linearGradient
       inkscape:collect="always"
       xlink:href="#linearGradient4248"
       id="linearGradient4254"
       x1="251.00443"
       y1="139.97296"
       x2="248.69675"
       y2="128.86127"
       gradientUnits="userSpaceOnUse"
       gradientTransform="translate(131.73104,313.39324)" />
    <linearGradient
       inkscape:collect="always"
       xlink:href="#linearGradient4248"
       id="linearGradient4262"
       x1="249.53508"
       y1="189.13795"
       x2="230.22034"
       y2="174.54155"
       gradientUnits="userSpaceOnUse"
       gradientTransform="translate(131.73104,313.39324)" />
    <linearGradient
       inkscape:collect="always"
       xlink:href="#linearGradient4248"
       id="linearGradient4270"
       x1="121.49479"
       y1="193.02408"
       x2="106.50991"
       y2="178.26918"
       gradientUnits="userSpaceOnUse"
       gradientTransform="translate(131.73104,313.39324)" />
    <linearGradient
       inkscape:collect="always"
       xlink:href="#linearGradient4272"
       id="linearGradient4278"
       x1="218.29343"
       y1="309.88403"
       x2="308.375"
       y2="341.44382"
       gradientUnits="userSpaceOnUse"
       gradientTransform="translate(131.73104,313.39324)" />
    <linearGradient
       inkscape:collect="always"
       xlink:href="#linearGradient4296"
       id="linearGradient4302"
       x1="186.86383"
       y1="378.52277"
       x2="183.056"
       y2="364.79901"
       gradientUnits="userSpaceOnUse"
       gradientTransform="translate(131.73104,313.39324)" />
  </defs>
  <sodipodi:namedview
     id="base"
     pagecolor="#000000"
     bordercolor="#666666"
     borderopacity="1.0"
     inkscape:pageopacity="1"
     inkscape:pageshadow="2"
     inkscape:zoom="0.7"
     inkscape:cx="-31.737258"
     inkscape:cy="-10.808972"
     inkscape:document-units="px"
     inkscape:current-layer="layer1"
     showgrid="false"
     inkscape:window-width="1366"
     inkscape:window-height="736"
     inkscape:window-x="0"
     inkscape:window-y="0"
     inkscape:window-maximized="1"
     fit-margin-top="10"
     fit-margin-left="10"
     fit-margin-right="10"
     fit-margin-bottom="10" />
  <metadata
     id="metadata7">
    <rdf:RDF>
      <cc:Work
         rdf:about="">
        <dc:format>image/svg+xml</dc:format>
        <dc:type
           rdf:resource="http://purl.org/dc/dcmitype/StillImage" />
        <dc:title></dc:title>
      </cc:Work>
    </rdf:RDF>
  </metadata>
  <g
     inkscape:label="Layer 1"
     inkscape:groupmode="layer"
     id="layer1"
     transform="translate(-131.73104,-313.39324)">
    <path
       style="fill:#ffffff;fill-opacity:1;fill-rule:evenodd;stroke:none;stroke-width:7;stroke-linecap:round;stroke-linejoin:round;stroke-miterlimit:4;stroke-dasharray:none;stroke-opacity:1"
       d="m 314.30815,324.73579 c -68.68878,1.94773 -86.49214,15.30499 -107.69168,34.59769 -23.23252,21.14283 -58.99937,71.46732 -58.59446,105.41528 3.32779,36.07012 12.7802,69.18968 16.11503,105.56438 1.15089,12.94356 0.42526,63.46372 12.65927,84.63173 16.11231,27.87848 28.51728,91.89088 51.98778,107.88527 23.4984,16.01341 68.96254,18.18423 110.5088,2.44107 29.70499,-11.25617 77.25111,-33.99136 107.90265,-70.47064 20.23036,-25.87901 26.53259,-41.55394 42.81587,-62.7354 18.92972,-17.21039 25.39822,-23.26093 27.96432,-40.95292 0.78727,-15.16235 1.87144,-32.19026 -3.39347,-45.15858 -3.3862,-10.60782 8.60824,-17.35687 3.71612,-58.41866 C 494.97718,379.19177 474.32611,328.12938 314.30815,324.73579 Z"
       id="path4423"
       inkscape:connector-curvature="0"
       sodipodi:nodetypes="csccssscccccc" />
    <path
       style="fill:#d1a485;fill-opacity:1;fill-rule:evenodd;stroke:#000000;stroke-width:7;stroke-linecap:round;stroke-linejoin:round;stroke-miterlimit:4;stroke-dasharray:none;stroke-opacity:1"
       d="m 458.92866,628.47156 11.95602,-6.3956 c 14.39846,-6.23961 22.29361,-20.41565 24.54593,-35.94431 0.69101,-13.30834 3.21004,-29.66445 -2.97845,-39.63642 -3.71592,-5.53761 -21.64862,-5.83912 -21.64862,-5.83912 z"
       id="path4211"
       inkscape:connector-curvature="0"
       sodipodi:nodetypes="cccccc" />
    <path
       style="fill:url(#linearGradient4278);fill-opacity:1;fill-rule:evenodd;stroke:#000000;stroke-width:7;stroke-linecap:round;stroke-linejoin:round;stroke-miterlimit:4;stroke-dasharray:none;stroke-opacity:1"
       d="m 431.82129,405.46462 c -74.97563,-35.90312 -253.65135,-48.2738 -251.92193,105.32413 2.17591,20.77967 4.46917,51.58367 4.95856,57.08763 1.01016,11.36087 0.3736,55.703 11.11167,74.28265 14.14214,24.46958 25.02959,80.6552 45.63019,94.69385 20.62508,14.05534 60.52955,15.96099 96.99566,2.14286 26.07274,-9.87979 66.47573,-40.03233 90.71939,-63.628 22.90635,-22.29409 27.08017,-44.05625 32.82996,-69.03917 5.74979,-24.98291 1.69578,-61.16988 0.56819,-76.52642"
       id="path4209"
       inkscape:connector-curvature="0"
       sodipodi:nodetypes="ccssssszc" />
    <path
       style="fill:#ffffff;fill-opacity:0.296875;fill-rule:evenodd;stroke:none;stroke-width:1px;stroke-linecap:butt;stroke-linejoin:miter;stroke-opacity:1"
       d="m 309.03317,445.47189 c 0,0 -25.57798,32.10053 -40.71428,92.85714 -15.13631,60.75661 -30.05056,193.26466 -24.60081,196.10282 54.89232,28.58719 115.39484,-2.85625 172.86585,-51.58867 35.3688,-31.24832 37.45504,-48.22834 43.19943,-105.67223 l -8.10225,-138.96086 c -19.89134,-43.25657 -112.12463,-61.28281 -142.64794,7.2618 z"
       id="path4320"
       inkscape:connector-curvature="0"
       sodipodi:nodetypes="czscccc" />
    <path
       style="fill:url(#linearGradient4254);fill-opacity:1;fill-rule:evenodd;stroke:#000000;stroke-width:7;stroke-linecap:round;stroke-linejoin:round;stroke-miterlimit:4;stroke-dasharray:none;stroke-opacity:1"
       d="m 181.42857,527.71934 c 0,0 7.14286,-98.92856 32.85714,-98.21428 44.96535,-12.83431 81.48923,14.27659 110.71429,7.14286 0,0 7.44968,-7.75945 -2.85714,-20.71429 22.09104,-10.13249 111.7451,-7.02162 110,17.85715 -4.80911,42.48035 9.03787,61.2854 18.57143,74.28571 9.53356,13.0003 15.08665,72.14286 15.08665,72.14286 l 15.62763,-23.57143 c 0,0 18.57143,-32.85714 14.28572,-61.42857 -20.46955,-95.09533 -38.59535,-139.91441 -179.04677,-142.89304 -60.2897,1.70957 -75.91734,13.43401 -94.52466,30.36766 -20.39171,18.55754 -52.85715,72.52538 -51.42857,92.52538 1.42857,20 10.71428,52.49999 10.71428,52.49999 z"
       id="path4207"
       inkscape:connector-curvature="0"
       sodipodi:nodetypes="ccccczccccssc" />
    <path
       style="fill:url(#linearGradient4302);fill-opacity:1;fill-rule:evenodd;stroke:#000000;stroke-width:7;stroke-linecap:round;stroke-linejoin:round;stroke-miterlimit:4;stroke-dasharray:none;stroke-opacity:1"
       d="m 248.1212,665.53204 c 0,0 -1.87291,32.61988 30.18589,37.47771 42.42475,6.42857 114.73462,-41.06818 113.93033,-65.85918 -67.0773,36.92853 -99.08574,56.41895 -144.11622,28.38147 z"
       id="path4213"
       inkscape:connector-curvature="0"
       sodipodi:nodetypes="cscc" />
    <path
       style="fill:url(#linearGradient4270);fill-opacity:1;fill-rule:evenodd;stroke:none;stroke-width:7;stroke-linecap:butt;stroke-linejoin:miter;stroke-miterlimit:4;stroke-dasharray:none;stroke-opacity:1"
       d="m 192.9279,514.00662 c 48.35485,-11.1993 65.73303,-4.93075 65.73303,-4.93075 0,0 27.65839,-11.40207 7.36907,-16.37804 -38.85425,-9.52902 -73.1021,21.30879 -73.1021,21.30879 z"
       id="path4244"
       inkscape:connector-curvature="0"
       sodipodi:nodetypes="ccsc" />
    <path
       sodipodi:nodetypes="ccsc"
       inkscape:connector-curvature="0"
       id="path4246"
       d="m 419.61971,494.89368 c -57.74461,-0.47247 -77.00255,9.57485 -77.00255,9.57485 0,0 -33.75477,-5.22939 -10.93059,-14.63451 43.70856,-18.01088 87.93314,5.05966 87.93314,5.05966 z"
       style="fill:url(#linearGradient4262);fill-opacity:1;fill-rule:evenodd;stroke:none;stroke-width:7;stroke-linecap:butt;stroke-linejoin:miter;stroke-miterlimit:4;stroke-dasharray:none;stroke-opacity:1" />
    <path
       style="fill:none;fill-opacity:1;fill-rule:evenodd;stroke:#000000;stroke-width:7.00000048;stroke-linecap:round;stroke-linejoin:round;stroke-miterlimit:4;stroke-dasharray:none;stroke-opacity:1"
       d="M 298.32632,524.65884 C 281.02258,564.25537 267.03418,632.36485 276.91325,638.05318 290.57454,645.91931 325,631.64563 325,631.64563"
       id="path4240"
       inkscape:connector-curvature="0"
       sodipodi:nodetypes="csc" />
    <rect
       style="fill:#000000;fill-opacity:1;fill-rule:evenodd;stroke:none;stroke-width:7.01305342;stroke-linecap:round;stroke-linejoin:round;stroke-miterlimit:4;stroke-dasharray:none;stroke-opacity:1"
       id="rect4236-9"
       width="28.476694"
       height="43.743294"
       x="282.06219"
       y="530.18158"
       rx="13.759277"
       ry="13.675144"
       transform="matrix(0.99740195,-0.07203715,0.1577104,0.98748541,0,0)" />
    <rect
       transform="matrix(0.99740195,-0.07203715,0.1577104,0.98748541,0,0)"
       ry="13.675144"
       rx="13.759277"
       y="534.33868"
       x="145.69514"
       height="43.743294"
       width="28.476694"
       id="rect4390"
       style="fill:#000000;fill-opacity:1;fill-rule:evenodd;stroke:none;stroke-width:7.01305342;stroke-linecap:round;stroke-linejoin:round;stroke-miterlimit:4;stroke-dasharray:none;stroke-opacity:1" />
  </g>
</svg>
